<svg width="11" height="11" viewBox="0 0 11 11" fill="none" xmlns="http://www.w3.org/2000/svg">
<path d="M7.79167 1.60517C7.79167 1.54439 7.76752 1.4861 7.72454 1.44312C7.68157 1.40015 7.62328 1.376 7.5625 1.376H6.41667C5.83968 1.34726 5.27477 1.54806 4.84537 1.93452C4.41597 2.32098 4.15698 2.86169 4.125 3.4385V4.676H2.97917C2.91839 4.676 2.8601 4.70015 2.81712 4.74312C2.77414 4.7861 2.75 4.84439 2.75 4.90517V6.09684C2.75 6.15761 2.77414 6.2159 2.81712 6.25888C2.8601 6.30186 2.91839 6.326 2.97917 6.326H4.125V9.39684C4.125 9.45761 4.14914 9.5159 4.19212 9.55888C4.2351 9.60186 4.29339 9.626 4.35417 9.626H5.72917C5.78994 9.626 5.84823 9.60186 5.89121 9.55888C5.93419 9.5159 5.95833 9.45761 5.95833 9.39684V6.326H7.15917C7.21013 6.32673 7.25988 6.31046 7.30055 6.27974C7.34123 6.24903 7.3705 6.20563 7.38375 6.15642L7.71375 4.96475C7.72287 4.93089 7.72409 4.89539 7.71733 4.86098C7.71057 4.82657 7.696 4.79417 7.67475 4.76628C7.6535 4.73839 7.62613 4.71574 7.59475 4.70009C7.56337 4.68444 7.52882 4.6762 7.49375 4.676H5.95833V3.4385C5.96973 3.32505 6.02301 3.21993 6.10776 3.14365C6.19251 3.06738 6.30265 3.02543 6.41667 3.026H7.5625C7.62328 3.026 7.68157 3.00186 7.72454 2.95888C7.76752 2.9159 7.79167 2.85761 7.79167 2.79683V1.60517Z" fill="white"/>
</svg>
