<svg width="11" height="11" viewBox="0 0 11 11" fill="none" xmlns="http://www.w3.org/2000/svg">
<path d="M6.94375 3.85011C6.59246 3.84891 6.24438 3.91698 5.91943 4.05044C5.59448 4.1839 5.29903 4.38012 5.04999 4.62788C4.80095 4.87564 4.60321 5.17008 4.46809 5.49434C4.33296 5.8186 4.2631 6.16632 4.2625 6.51761V9.21261C4.2625 9.32202 4.30596 9.42694 4.38332 9.5043C4.46067 9.58165 4.56559 9.62511 4.675 9.62511H5.6375C5.7469 9.62511 5.85182 9.58165 5.92918 9.5043C6.00654 9.42694 6.05 9.32202 6.05 9.21261V6.51761C6.04991 6.39267 6.07615 6.26911 6.12701 6.155C6.17787 6.04088 6.25222 5.93876 6.34519 5.8553C6.43817 5.77183 6.54769 5.7089 6.66662 5.67061C6.78554 5.63231 6.91121 5.61951 7.03541 5.63303C7.25817 5.66109 7.46288 5.76992 7.61072 5.93888C7.75856 6.10785 7.83926 6.32519 7.8375 6.5497V9.21261C7.8375 9.32202 7.88096 9.42694 7.95832 9.5043C8.03567 9.58165 8.1406 9.62511 8.25 9.62511H9.2125C9.3219 9.62511 9.42682 9.58165 9.50418 9.5043C9.58154 9.42694 9.625 9.32202 9.625 9.21261V6.51761C9.6244 6.16632 9.55453 5.8186 9.41941 5.49434C9.28428 5.17008 9.08654 4.87564 8.8375 4.62788C8.58846 4.38012 8.29302 4.1839 7.96807 4.05044C7.64311 3.91698 7.29503 3.84891 6.94375 3.85011Z" fill="#AAAAAA"/>
<path d="M3.025 4.26245H1.7875C1.55968 4.26245 1.375 4.44713 1.375 4.67495V9.21245C1.375 9.44027 1.55968 9.62495 1.7875 9.62495H3.025C3.25282 9.62495 3.4375 9.44027 3.4375 9.21245V4.67495C3.4375 4.44713 3.25282 4.26245 3.025 4.26245Z" fill="#AAAAAA"/>
<path d="M2.40625 3.4375C2.97579 3.4375 3.4375 2.97579 3.4375 2.40625C3.4375 1.83671 2.97579 1.375 2.40625 1.375C1.83671 1.375 1.375 1.83671 1.375 2.40625C1.375 2.97579 1.83671 3.4375 2.40625 3.4375Z" fill="#AAAAAA"/>
</svg>
