<svg width="11" height="11" viewBox="0 0 11 11" fill="none" xmlns="http://www.w3.org/2000/svg">
<path d="M3.70334 9.16662C4.38107 9.18929 5.05648 9.07588 5.68964 8.83309C6.32279 8.59029 6.90086 8.22304 7.38967 7.75303C7.87847 7.28302 8.2681 6.7198 8.53553 6.09665C8.80296 5.47349 8.94276 4.80305 8.94667 4.12495C9.25726 3.7406 9.48789 3.29804 9.625 2.82328C9.63524 2.78577 9.63441 2.7461 9.62263 2.70905C9.61084 2.672 9.58859 2.63915 9.55856 2.61445C9.52854 2.58975 9.49201 2.57426 9.45338 2.56984C9.41475 2.56542 9.37567 2.57226 9.34084 2.58953C9.17835 2.66775 8.99542 2.69301 8.81781 2.66177C8.6402 2.63052 8.47688 2.54434 8.35084 2.41537C8.18994 2.23917 7.99531 2.09707 7.77849 1.99747C7.56167 1.89787 7.32706 1.84281 7.08857 1.83554C6.85007 1.82828 6.61255 1.86896 6.39006 1.95517C6.16758 2.04138 5.96466 2.17138 5.79334 2.33745C5.55876 2.56463 5.38694 2.84862 5.29458 3.16184C5.20222 3.47506 5.19247 3.80684 5.26625 4.12495C3.73084 4.21662 2.67667 3.48787 1.83334 2.4887C1.808 2.46001 1.77486 2.43932 1.73796 2.42915C1.70106 2.41898 1.662 2.41978 1.62554 2.43144C1.58909 2.44311 1.55682 2.46514 1.53267 2.49484C1.50853 2.52454 1.49356 2.56063 1.48959 2.5987C1.32893 3.48989 1.44482 4.40891 1.8217 5.23231C2.19859 6.05572 2.81841 6.74408 3.59792 7.20495C3.07525 7.80437 2.34127 8.17875 1.54917 8.24995C1.50673 8.25699 1.46756 8.27712 1.43713 8.30752C1.4067 8.33792 1.38654 8.37708 1.37947 8.41951C1.3724 8.46194 1.37877 8.50552 1.39769 8.54415C1.41662 8.58278 1.44714 8.61453 1.485 8.63495C2.17412 8.97933 2.93298 9.1612 3.70334 9.16662" fill="#AAAAAA"/>
</svg>
