<svg width="9" height="9" viewBox="0 0 9 9" fill="none" xmlns="http://www.w3.org/2000/svg">
<path d="M2.70334 8.16662C3.38107 8.18929 4.05648 8.07588 4.68964 7.83309C5.32279 7.59029 5.90086 7.22304 6.38967 6.75303C6.87847 6.28302 7.2681 5.7198 7.53553 5.09665C7.80296 4.47349 7.94276 3.80305 7.94667 3.12495C8.25726 2.7406 8.48789 2.29804 8.625 1.82328C8.63524 1.78577 8.63441 1.7461 8.62263 1.70905C8.61084 1.672 8.58859 1.63915 8.55856 1.61445C8.52854 1.58975 8.49201 1.57426 8.45338 1.56984C8.41475 1.56542 8.37567 1.57226 8.34084 1.58953C8.17835 1.66775 7.99542 1.69301 7.81781 1.66177C7.6402 1.63052 7.47688 1.54434 7.35084 1.41537C7.18994 1.23917 6.99531 1.09707 6.77849 0.99747C6.56167 0.897873 6.32706 0.84281 6.08857 0.835544C5.85007 0.828278 5.61255 0.868957 5.39006 0.95517C5.16758 1.04138 4.96466 1.17138 4.79334 1.33745C4.55876 1.56463 4.38694 1.84862 4.29458 2.16184C4.20222 2.47506 4.19247 2.80684 4.26625 3.12495C2.73084 3.21662 1.67667 2.48787 0.833337 1.4887C0.808002 1.46001 0.77486 1.43932 0.737959 1.42915C0.701058 1.41898 0.661995 1.41978 0.62554 1.43144C0.589085 1.44311 0.556816 1.46514 0.532673 1.49484C0.50853 1.52454 0.493559 1.56063 0.489587 1.5987C0.328927 2.48989 0.444821 3.40891 0.821704 4.23231C1.19859 5.05572 1.81841 5.74408 2.59792 6.20495C2.07525 6.80437 1.34127 7.17875 0.54917 7.24995C0.506734 7.25699 0.46756 7.27712 0.437131 7.30752C0.406702 7.33792 0.386541 7.37708 0.37947 7.41951C0.372398 7.46194 0.37877 7.50552 0.397693 7.54415C0.416616 7.58278 0.447144 7.61453 0.485004 7.63495C1.17412 7.97933 1.93298 8.1612 2.70334 8.16662Z" fill="#AAAAAA"/>
</svg>
